<svg width="41" height="40" viewBox="0 0 41 40" fill="none" xmlns="http://www.w3.org/2000/svg">
<g clip-path="url(#clip0_430_1083)">
<path d="M20.1347 0.302979C11.9101 0.302979 9.50472 0.311463 9.03716 0.350251C7.34933 0.490554 6.29906 0.756312 5.15485 1.32601C4.27306 1.76389 3.57763 2.27146 2.89128 2.98298C1.64132 4.28055 0.883768 5.87692 0.609533 7.77449C0.476204 8.69571 0.437417 8.88358 0.429539 13.589C0.426509 15.1575 0.429539 17.2218 0.429539 19.9906C0.429539 28.2087 0.43863 30.6118 0.478022 31.0784C0.614382 32.7209 0.87195 33.7542 1.41739 34.8845C2.45978 37.0481 4.45063 38.6724 6.79601 39.2784C7.60811 39.4875 8.50505 39.6027 9.65653 39.6572C10.1444 39.6784 15.117 39.6936 20.0926 39.6936C25.0682 39.6936 30.0438 39.6875 30.5195 39.6633C31.8528 39.6006 32.627 39.4966 33.4831 39.2754C35.8436 38.6663 37.7981 37.0663 38.8617 34.8724C39.3965 33.7693 39.6677 32.6966 39.7905 31.1399C39.8171 30.8006 39.8283 25.3893 39.8283 19.9854C39.8283 14.5806 39.8162 9.17934 39.7896 8.83995C39.6653 7.25813 39.3941 6.19449 38.842 5.07025C38.389 4.14995 37.886 3.46268 37.1557 2.75995C35.8524 1.5151 34.2585 0.757524 32.3592 0.483585C31.4389 0.350554 31.2556 0.31116 26.5466 0.302979H20.1347Z" fill="url(#paint0_radial_430_1083)"/>
<path d="M20.1347 0.302979C11.9101 0.302979 9.50472 0.311463 9.03716 0.350251C7.34933 0.490554 6.29906 0.756312 5.15485 1.32601C4.27306 1.76389 3.57763 2.27146 2.89128 2.98298C1.64132 4.28055 0.883768 5.87692 0.609533 7.77449C0.476204 8.69571 0.437417 8.88358 0.429539 13.589C0.426509 15.1575 0.429539 17.2218 0.429539 19.9906C0.429539 28.2087 0.43863 30.6118 0.478022 31.0784C0.614382 32.7209 0.87195 33.7542 1.41739 34.8845C2.45978 37.0481 4.45063 38.6724 6.79601 39.2784C7.60811 39.4875 8.50505 39.6027 9.65653 39.6572C10.1444 39.6784 15.117 39.6936 20.0926 39.6936C25.0682 39.6936 30.0438 39.6875 30.5195 39.6633C31.8528 39.6006 32.627 39.4966 33.4831 39.2754C35.8436 38.6663 37.7981 37.0663 38.8617 34.8724C39.3965 33.7693 39.6677 32.6966 39.7905 31.1399C39.8171 30.8006 39.8283 25.3893 39.8283 19.9854C39.8283 14.5806 39.8162 9.17934 39.7896 8.83995C39.6653 7.25813 39.3941 6.19449 38.842 5.07025C38.389 4.14995 37.886 3.46268 37.1557 2.75995C35.8524 1.5151 34.2585 0.757524 32.3592 0.483585C31.4389 0.350554 31.2556 0.31116 26.5466 0.302979H20.1347Z" fill="url(#paint1_radial_430_1083)"/>
<path d="M20.1256 5.45459C16.1754 5.45459 15.6797 5.47186 14.1282 5.54247C12.5798 5.61338 11.5228 5.85853 10.598 6.21823C9.64137 6.58974 8.82988 7.08671 8.02142 7.8955C7.21236 8.70398 6.7154 9.5155 6.34269 10.4719C5.98209 11.397 5.73664 12.4543 5.66695 14.0022C5.59756 15.5537 5.57938 16.0497 5.57938 20C5.57938 23.9503 5.59695 24.4446 5.66725 25.9961C5.73846 27.5446 5.98361 28.6016 6.34299 29.5264C6.7148 30.4831 7.21175 31.2946 8.02051 32.1031C8.82867 32.9122 9.64016 33.4103 10.5962 33.7819C11.5216 34.1416 12.5789 34.3867 14.127 34.4576C15.6785 34.5282 16.1739 34.5455 20.1238 34.5455C24.0743 34.5455 24.5685 34.5282 26.12 34.4576C27.6684 34.3867 28.7266 34.1416 29.652 33.7819C30.6083 33.4103 31.4186 32.9122 32.2268 32.1031C33.0358 31.2946 33.5328 30.4831 33.9055 29.5267C34.2631 28.6016 34.5085 27.5443 34.5812 25.9964C34.6509 24.4449 34.6691 23.9503 34.6691 20C34.6691 16.0497 34.6509 15.554 34.5812 14.0025C34.5085 12.454 34.2631 11.397 33.9055 10.4722C33.5328 9.5155 33.0358 8.70398 32.2268 7.8955C31.4177 7.08641 30.6086 6.58944 29.6511 6.21823C28.7238 5.85853 27.6663 5.61338 26.1178 5.54247C24.5664 5.47186 24.0725 5.45459 20.1211 5.45459H20.1256ZM18.8208 8.0758C19.2081 8.0752 19.6402 8.0758 20.1256 8.0758C24.0091 8.0758 24.4694 8.08974 26.003 8.15944C27.4211 8.22429 28.1908 8.46126 28.7035 8.66035C29.3823 8.92398 29.8662 9.23914 30.375 9.74823C30.8841 10.2573 31.1992 10.7422 31.4634 11.421C31.6625 11.9331 31.8998 12.7028 31.9643 14.121C32.034 15.6543 32.0492 16.1149 32.0492 19.9967C32.0492 23.8785 32.034 24.3391 31.9643 25.8725C31.8995 27.2907 31.6625 28.0603 31.4634 28.5725C31.1998 29.2513 30.8841 29.7346 30.375 30.2434C29.8659 30.7525 29.3826 31.0676 28.7035 31.3313C28.1914 31.5313 27.4211 31.7676 26.003 31.8325C24.4697 31.9022 24.0091 31.9173 20.1256 31.9173C16.2418 31.9173 15.7815 31.9022 14.2482 31.8325C12.8301 31.767 12.0604 31.53 11.5474 31.331C10.8686 31.0673 10.3838 30.7522 9.8747 30.2431C9.36563 29.734 9.05048 29.2503 8.78625 28.5713C8.58716 28.0591 8.3499 27.2894 8.28536 25.8713C8.21566 24.3379 8.20172 23.8773 8.20172 19.9931C8.20172 16.1088 8.21566 15.6507 8.28536 14.1173C8.3502 12.6991 8.58716 11.9294 8.78625 11.4167C9.04988 10.7379 9.36563 10.2531 9.8747 9.74398C10.3838 9.23489 10.8686 8.91974 11.5474 8.6555C12.0601 8.4555 12.8301 8.21914 14.2482 8.15398C15.59 8.09338 16.11 8.0752 18.8208 8.07217V8.0758ZM27.8896 10.491C26.926 10.491 26.1442 11.2719 26.1442 12.2358C26.1442 13.1994 26.926 13.9813 27.8896 13.9813C28.8532 13.9813 29.635 13.1994 29.635 12.2358C29.635 11.2722 28.8532 10.4903 27.8896 10.4903V10.491ZM20.1256 12.5303C16.0006 12.5303 12.6561 15.8749 12.6561 20C12.6561 24.1252 16.0006 27.4682 20.1256 27.4682C24.2506 27.4682 27.5939 24.1252 27.5939 20C27.5939 15.8749 24.2506 12.5303 20.1256 12.5303ZM20.1256 15.1516C22.8031 15.1516 24.9739 17.3222 24.9739 20C24.9739 22.6776 22.8031 24.8485 20.1256 24.8485C17.4478 24.8485 15.2773 22.6776 15.2773 20C15.2773 17.3222 17.4478 15.1516 20.1256 15.1516Z" fill="white"/>
</g>
<defs>
<radialGradient id="paint0_radial_430_1083" cx="0" cy="0" r="1" gradientUnits="userSpaceOnUse" gradientTransform="translate(10.8939 42.7275) rotate(-90) scale(39.039 36.3181)">
<stop stop-color="#FFDD55"/>
<stop offset="0.1" stop-color="#FFDD55"/>
<stop offset="0.5" stop-color="#FF543E"/>
<stop offset="1" stop-color="#C837AB"/>
</radialGradient>
<radialGradient id="paint1_radial_430_1083" cx="0" cy="0" r="1" gradientUnits="userSpaceOnUse" gradientTransform="translate(-6.17154 3.14061) rotate(78.678) scale(17.4508 71.9489)">
<stop stop-color="#3771C8"/>
<stop offset="0.128" stop-color="#3771C8"/>
<stop offset="1" stop-color="#6600FF" stop-opacity="0"/>
</radialGradient>
<clipPath id="clip0_430_1083">
<rect width="40" height="40" fill="white" transform="translate(0.125)"/>
</clipPath>
</defs>
</svg>
