<svg width="41" height="34" viewBox="0 0 41 34" fill="none" xmlns="http://www.w3.org/2000/svg">
<path d="M36.0299 8.90154C36.0543 9.25151 36.0543 9.60149 36.0543 9.95469C36.0543 20.7169 27.7992 33.129 12.7043 33.129V33.1226C8.24525 33.129 3.87881 31.8614 0.125 29.4712C0.773385 29.5486 1.42502 29.5873 2.07828 29.5889C5.77359 29.5922 9.36327 28.3616 12.2704 26.0956C8.75876 26.0295 5.67934 23.7571 4.60357 20.4395C5.83371 20.675 7.10123 20.6266 8.30863 20.2992C4.48007 19.5315 1.72565 16.193 1.72565 12.3158C1.72565 12.2804 1.72565 12.2465 1.72565 12.2126C2.86642 12.8432 4.14369 13.1932 5.45021 13.2319C1.84428 10.8401 0.732759 6.07913 2.91029 2.35679C7.07686 7.44518 13.2243 10.5385 19.8236 10.8659C19.1622 8.03707 20.0657 5.07274 22.1977 3.08416C25.503 0.000481844 30.7015 0.158536 33.8085 3.43736C35.6464 3.07771 37.408 2.4084 39.02 1.46007C38.4074 3.34543 37.1252 4.94695 35.4124 5.96462C37.0391 5.77431 38.6284 5.34208 40.125 4.68245C39.0232 6.32105 37.6355 7.74838 36.0299 8.90154Z" fill="white"/>
</svg>
