<svg width="80" height="130" viewBox="0 0 80 130" fill="none" xmlns="http://www.w3.org/2000/svg">
<path d="M28.6461 129.186H67.075V91.4428H28.6461L28.6461 129.186Z" fill="#FF667A" stroke="#263238" stroke-linecap="round" stroke-linejoin="round"/>
<path d="M59.0058 110.626L47.7152 121.922L36.4245 110.626C35.7454 109.987 35.2016 109.219 34.8254 108.366C34.4492 107.513 34.2483 106.593 34.2346 105.661C34.221 104.729 34.3948 103.804 34.7457 102.941C35.0967 102.077 35.6177 101.293 36.2778 100.634C36.9379 99.9755 37.7237 99.4561 38.5885 99.1067C39.4533 98.7573 40.3796 98.585 41.3123 98.6C42.245 98.6151 43.1652 98.8172 44.0183 99.1943C44.8714 99.5714 45.64 100.116 46.2784 100.795L47.7297 102.245L49.1809 100.795C49.827 100.15 50.594 99.6378 51.4381 99.2885C52.2822 98.9391 53.187 98.7593 54.1006 98.7593C55.0143 98.7593 55.919 98.9391 56.7632 99.2885C57.6073 99.6378 58.3743 100.15 59.0203 100.795C59.6664 101.441 60.1789 102.207 60.5285 103.051C60.8782 103.894 61.0581 104.798 61.0581 105.711C61.0581 106.624 60.8782 107.528 60.5285 108.371C60.1789 109.215 59.6664 109.981 59.0203 110.626H59.0058Z" fill="white" stroke="#263238" stroke-linecap="round" stroke-linejoin="round"/>
<path d="M28.6459 91.4429H12.5952V129.186H28.6459V91.4429Z" fill="#D36775" stroke="#263238" stroke-linecap="round" stroke-linejoin="round"/>
<path d="M40.0237 72.3318V81.0608L67.0603 91.4428" stroke="#263238" stroke-linecap="round" stroke-linejoin="round"/>
<path d="M40.0238 81.0608L19.8225 91.2688V128.896" stroke="#263238" stroke-linecap="round" stroke-linejoin="round"/>
<path d="M76.2612 41.0408C72.9233 46.9858 67.0893 51.7998 62.1696 56.0773C55.2907 62.0368 46.9606 65.7633 42.4182 74.7968C42.2055 75.2195 41.8775 75.5735 41.4721 75.8179C41.0667 76.0623 40.6003 76.1871 40.1269 76.178C39.6535 76.1689 39.1923 76.0262 38.7965 75.7665C38.4008 75.5067 38.0867 75.1404 37.8904 74.7098C29.6909 57.8753 2.56721 54.9463 0.579014 33.1238C-0.190143 24.6703 4.7731 15.4338 10.3749 9.41632C15.5413 3.86282 27.7897 -3.16968 33.943 4.34132C36.1199 7.02382 37.4115 8.54631 40.1978 11.7653C42.9842 8.54631 44.2613 7.02382 46.4382 4.34132C52.8817 -3.56118 63.6354 4.34132 68.7002 9.67732C74.5051 15.8688 79.7877 24.1773 78.8589 33.1093C78.5484 35.9036 77.664 38.6037 76.2612 41.0408Z" fill="#FFBD8D" stroke="#263238" stroke-linecap="round" stroke-linejoin="round"/>
<path d="M67.2925 11.0114C70.195 14.3609 71.0657 18.2614 69.2807 19.8274C67.4957 21.3934 63.737 19.8274 60.8635 16.5504C57.99 13.2734 57.1048 9.30037 58.8753 7.73437C60.6458 6.16837 64.419 7.67637 67.2925 11.0114Z" fill="white"/>
<path opacity="0.49" d="M69.9917 13.7953C75.0711 19.6968 74.926 28.1358 69.687 32.6453C64.448 37.1548 56.0598 36.0528 50.9805 30.1513C45.9012 24.2498 46.0318 15.8108 51.2853 11.3013C56.5387 6.79177 64.9124 7.90828 69.9917 13.7953Z" fill="white"/>
<path d="M32.0274 5.1388C33.885 7.2993 34.2913 9.9963 32.9272 11.1708C31.563 12.3453 28.9363 11.5478 27.1222 9.3873C25.3082 7.2268 24.8728 4.5298 26.237 3.3553C27.6011 2.1808 30.1698 2.9783 32.0274 5.1388Z" fill="white"/>
<path d="M24.6407 57.1939C15.2657 50.8139 5.03445 45.0139 3.88797 32.3844C3.24943 25.4679 6.79045 17.9859 11.1442 12.4904" fill="#FFE5D2"/>
<path d="M24.6407 57.1939C15.2657 50.8139 5.03445 45.0139 3.88797 32.3844C3.24943 25.4679 6.79045 17.9859 11.1442 12.4904" stroke="#263238" stroke-linecap="round" stroke-linejoin="round"/>
<path d="M30.2133 61.2538C29.328 60.5288 28.3993 59.8038 27.4705 59.1658Z" fill="#FF667A"/>
<path d="M30.2133 61.2538C29.328 60.5288 28.3993 59.8038 27.4705 59.1658" stroke="#263238" stroke-linecap="round" stroke-linejoin="round"/>
<path d="M43.884 12.5338C43.884 12.5338 50.1098 4.0658 54.8554 4.0658Z" fill="#FF667A"/>
<path d="M43.884 12.5338C43.884 12.5338 50.1098 4.0658 54.8554 4.0658" stroke="#263238" stroke-linecap="round" stroke-linejoin="round"/>
<path d="M13.9448 9.54686C13.9448 9.54686 18.9371 5.31287 21.9266 5.31287Z" fill="#FF667A"/>
<path d="M13.9448 9.54686C13.9448 9.54686 18.9371 5.31287 21.9266 5.31287" stroke="#263238" stroke-linecap="round" stroke-linejoin="round"/>
</svg>
