<svg width="784" height="674" viewBox="0 0 784 674" fill="none" xmlns="http://www.w3.org/2000/svg">
<g clip-path="url(#clip0_444_617)">
<path d="M472.481 332.035C472.481 332.035 470.391 321.247 460.972 317.405C451.554 313.562 445.633 318.449 444.24 321.943C442.846 325.438 442.498 331.339 437.274 328.903C432.049 326.467 430.017 323.683 423.342 326.467C416.666 329.251 418.799 335.167 413.923 336.211C409.047 337.255 410.789 334.471 405.564 335.167C400.34 335.863 400.688 338.995 399.28 340.735C397.873 342.475 397.829 341.083 393.011 341.779C390.02 342.242 387.232 343.579 385 345.622H492.697C492.697 345.622 495.483 340.039 488.154 335.863C480.825 331.687 474.571 336.211 472.481 332.035Z" fill="white" stroke="#ADADAD" stroke-linecap="round" stroke-linejoin="round"/>
<path d="M315.861 37.7605C315.861 37.7605 313.772 26.9 304.353 23.13C294.934 19.36 289.013 24.174 287.62 27.654C286.227 31.134 285.879 37.0645 280.654 34.614C275.43 32.1635 273.398 29.394 266.708 32.178C260.018 34.962 262.18 40.878 257.304 41.9365C252.428 42.995 254.169 40.1965 248.945 40.8925C243.72 41.5885 244.054 44.7205 242.661 46.4605C241.268 48.2005 241.21 46.8085 236.391 47.5045C233.403 47.966 230.616 49.2975 228.381 51.3325H336.063C336.063 51.3325 338.864 45.7645 331.535 41.5885C324.206 37.4125 317.951 41.9365 315.861 37.7605Z" fill="white" stroke="#ADADAD" stroke-linecap="round" stroke-linejoin="round"/>
<path d="M596.096 207.845C596.096 207.845 592.221 187.879 574.82 180.803C557.42 173.727 546.463 182.731 543.88 189.169C541.297 195.607 540.658 206.569 530.993 202.045C521.328 197.521 517.467 192.388 505.219 197.536C492.971 202.683 496.831 213.645 487.804 215.574C478.777 217.502 481.999 212.355 472.334 213.645C462.669 214.936 463.307 220.721 460.724 223.94C458.141 227.159 458.155 224.593 449.114 225.869C443.584 226.723 438.429 229.19 434.297 232.959H633.465C633.465 232.959 638.631 222.65 625.091 214.921C611.551 207.193 599.956 215.574 596.096 207.845Z" fill="white" stroke="#ADADAD" stroke-linecap="round" stroke-linejoin="round"/>
<path d="M741.883 310.191C741.883 310.191 738.941 295.236 725.725 289.937C712.51 284.637 704.188 291.381 702.227 296.203C700.265 301.025 699.78 309.235 692.439 305.847C685.098 302.458 682.167 298.614 672.864 302.469C663.562 306.324 666.494 314.535 659.638 315.979C652.782 317.423 655.229 313.568 647.888 314.535C640.548 315.501 641.033 319.834 639.071 322.245C637.109 324.656 637.12 322.734 630.253 323.689C626.053 324.329 622.139 326.177 619 329H770.265C770.265 329 774.189 321.279 763.905 315.49C753.622 309.702 744.815 315.979 741.883 310.191Z" fill="white" stroke="#ADADAD" stroke-linecap="round" stroke-linejoin="round"/>
<path d="M138.481 322.015C138.481 322.015 136.391 311.227 126.972 307.399C117.554 303.571 111.647 308.443 110.254 311.923C108.861 315.403 108.513 321.319 103.274 318.883C98.0347 316.447 96.0175 313.663 89.3418 316.447C82.666 319.231 84.7994 325.147 79.9232 326.205C75.047 327.264 76.7885 324.465 71.5641 325.161C66.3396 325.857 66.6879 328.989 65.2947 330.729C63.9015 332.469 63.8435 331.077 59.0108 331.773C56.022 332.235 53.2356 333.566 51 335.601H158.697C158.697 335.601 161.483 330.033 154.169 325.857C146.854 321.681 140.571 326.22 138.481 322.015Z" fill="white" stroke="#ADADAD" stroke-linecap="round" stroke-linejoin="round"/>
<path d="M500.067 147.178H460.506V186.038H500.067V147.178Z" fill="#94D46C" stroke="#263238" stroke-linecap="round" stroke-linejoin="round"/>
<path d="M500.082 186.038H516.597V147.178H500.082V186.038Z" fill="#56992C" stroke="#263238" stroke-linecap="round" stroke-linejoin="round"/>
<path d="M488.356 127.501V136.491L460.506 147.178" stroke="#263238" stroke-linecap="round" stroke-linejoin="round"/>
<path d="M488.355 136.491L509.152 147.004V185.748" stroke="#263238" stroke-linecap="round" stroke-linejoin="round"/>
<path d="M526.015 95.2821C522.576 101.401 516.568 106.36 511.503 110.768C504.421 116.902 495.844 120.744 491.186 130.039C490.963 130.469 490.624 130.828 490.208 131.076C489.791 131.324 489.314 131.451 488.829 131.442C488.345 131.433 487.872 131.289 487.465 131.025C487.058 130.762 486.733 130.39 486.527 129.952C478.081 112.624 450.159 109.652 448.113 87.1331C447.315 78.4331 452.466 68.9356 458.271 62.7296C463.583 57.0166 476.223 49.7666 482.522 57.5096C484.771 60.2646 486.092 61.8596 488.965 65.1366C491.868 61.8306 493.159 60.2646 495.409 57.5096C502.026 49.3606 513.099 57.4226 518.324 62.9906C524.288 69.3706 529.73 77.9981 528.802 87.1186C528.447 90.0027 527.498 92.7822 526.015 95.2821Z" fill="#4685FF" stroke="#263238" stroke-linecap="round" stroke-linejoin="round"/>
<path d="M516.829 64.368C519.731 67.8045 520.704 71.8645 518.875 73.445C517.046 75.0255 513.172 73.445 510.168 70.0665C507.164 66.688 506.278 62.57 508.107 61.004C509.935 59.438 513.868 60.946 516.829 64.368Z" fill="white"/>
<path opacity="0.49" d="M519.601 67.239C524.825 73.3145 524.695 82 519.282 86.6545C513.868 91.309 505.263 90.149 500.024 84.0735C494.785 77.998 494.944 69.3125 500.343 64.658C505.742 60.0035 514.376 61.1635 519.601 67.239Z" fill="white"/>
<path d="M480.519 58.3216C482.435 60.5401 482.841 63.3241 481.433 64.5276C480.026 65.7311 477.341 64.9191 475.425 62.7006C473.51 60.4821 473.103 57.6981 474.511 56.4946C475.919 55.2911 478.603 56.1031 480.519 58.3216Z" fill="white"/>
<path d="M472.914 111.914C463.264 105.345 452.684 99.4001 451.538 86.3501C450.884 79.2306 454.44 71.5456 459.026 65.8761" fill="#4685FF"/>
<path d="M472.914 111.914C463.264 105.345 452.684 99.4001 451.538 86.3501C450.884 79.2306 454.44 71.5456 459.026 65.8761" stroke="#263238" stroke-linecap="round" stroke-linejoin="round"/>
<path d="M478.647 116.09C477.733 115.35 476.789 114.64 475.817 113.944Z" fill="#FF667A"/>
<path d="M478.647 116.09C477.733 115.35 476.789 114.64 475.817 113.944" stroke="#263238" stroke-linecap="round" stroke-linejoin="round"/>
<path d="M492.724 65.9341C492.724 65.9341 499.138 57.2341 504.015 57.2341Z" fill="#FF667A"/>
<path d="M492.724 65.9341C492.724 65.9341 499.138 57.2341 504.015 57.2341" stroke="#263238" stroke-linecap="round" stroke-linejoin="round"/>
<path d="M461.914 62.8601C461.914 62.8601 467.037 58.5101 470.128 58.5101Z" fill="#FF667A"/>
<path d="M461.914 62.8601C461.914 62.8601 467.037 58.5101 470.128 58.5101" stroke="#263238" stroke-linecap="round" stroke-linejoin="round"/>
<path d="M489.125 162.91H482.58V156.371H475.904V162.91H469.359V169.58H475.904V176.12H482.58V169.58H489.125V162.91Z" fill="white" stroke="#263238" stroke-linecap="round" stroke-linejoin="round"/>
<path d="M510.448 423.674H567.002V368.124H510.448V423.674Z" fill="#76B4FF" stroke="#263238" stroke-linecap="round" stroke-linejoin="round"/>
<path d="M554.565 400.039C554.565 404.188 552.916 408.168 549.979 411.102C547.042 414.036 543.059 415.684 538.906 415.684C534.753 415.684 530.771 414.036 527.834 411.102C524.897 408.168 523.248 404.188 523.248 400.039C523.248 391.339 538.906 373.939 538.906 373.939C538.906 373.939 554.565 391.469 554.565 400.039Z" fill="white" stroke="#263238" stroke-linecap="round" stroke-linejoin="round"/>
<path d="M510.433 368.139H486.822V423.688H510.433V368.139Z" fill="#5B8EC9" stroke="#263238" stroke-linecap="round" stroke-linejoin="round"/>
<path d="M527.195 340.009V352.856L567.003 368.139" stroke="#263238" stroke-linecap="round" stroke-linejoin="round"/>
<path d="M527.195 352.856L497.459 367.892V423.268" stroke="#263238" stroke-linecap="round" stroke-linejoin="round"/>
<path d="M580.47 293.957C575.55 302.657 566.973 309.791 559.717 316.069C549.559 324.842 537.354 330.337 530.692 343.619C530.375 344.235 529.891 344.749 529.296 345.104C528.701 345.459 528.019 345.641 527.326 345.629C526.633 345.617 525.957 345.412 525.375 345.036C524.793 344.66 524.327 344.129 524.031 343.503C511.957 318.708 472.048 314.402 469.116 282.284C467.984 269.843 475.284 256.184 483.542 247.383C491.132 239.219 509.2 228.866 518.212 239.93C521.419 243.874 523.32 246.107 527.413 250.848C531.505 246.107 533.406 243.874 536.613 239.93C546.09 228.33 561.909 239.799 569.368 247.774C577.916 256.88 585.694 269.234 584.359 282.255C583.883 286.382 582.559 290.365 580.47 293.957Z" fill="#FFBD8D" stroke="#263238" stroke-linecap="round" stroke-linejoin="round"/>
<path d="M567.336 249.761C571.559 254.676 572.88 260.476 570.239 262.724C567.597 264.971 562.083 262.811 557.845 257.895C553.607 252.98 552.301 247.18 554.943 244.932C557.584 242.685 563.099 244.845 567.336 249.761Z" fill="white"/>
<path opacity="0.49" d="M570.842 281.6C578.569 274.954 578.772 262.532 571.295 253.852C563.818 245.173 551.492 243.524 543.765 250.169C536.039 256.814 535.836 269.237 543.313 277.917C550.79 286.596 563.115 288.245 570.842 281.6Z" fill="white"/>
<path d="M515.44 241.119C518.168 244.28 518.763 248.253 516.746 249.993C514.729 251.733 510.941 250.544 508.155 247.368C505.368 244.193 504.831 240.22 506.849 238.494C508.866 236.769 512.697 237.943 515.44 241.119Z" fill="white"/>
<path d="M504.556 317.722C490.754 308.341 475.705 299.786 474.007 281.197C473.078 271.047 478.23 260.027 484.703 251.936" fill="#FFE5D2"/>
<path d="M504.556 317.722C490.754 308.341 475.705 299.786 474.007 281.197C473.078 271.047 478.23 260.027 484.703 251.936" stroke="#263238" stroke-linecap="round" stroke-linejoin="round"/>
<path d="M512.77 323.696C511.449 322.638 510.099 321.623 508.721 320.622Z" fill="#FF667A"/>
<path d="M512.77 323.696C511.449 322.638 510.099 321.623 508.721 320.622" stroke="#263238" stroke-linecap="round" stroke-linejoin="round"/>
<path d="M532.869 251.994C532.869 251.994 542.056 239.524 549.022 239.524Z" fill="#FF667A"/>
<path d="M532.869 251.994C532.869 251.994 542.056 239.524 549.022 239.524" stroke="#263238" stroke-linecap="round" stroke-linejoin="round"/>
<path d="M488.824 247.6C488.824 247.6 496.168 241.365 500.579 241.365Z" fill="#FF667A"/>
<path d="M488.824 247.6C488.824 247.6 496.168 241.365 500.579 241.365" stroke="#263238" stroke-linecap="round" stroke-linejoin="round"/>
<path d="M133.146 275.186H171.575V237.443H133.146V275.186Z" fill="#FF667A" stroke="#263238" stroke-linecap="round" stroke-linejoin="round"/>
<path d="M163.506 256.626L152.215 267.922L140.925 256.626C140.245 255.987 139.702 255.219 139.325 254.366C138.949 253.513 138.748 252.593 138.735 251.661C138.721 250.729 138.895 249.804 139.246 248.941C139.597 248.077 140.118 247.293 140.778 246.634C141.438 245.975 142.224 245.456 143.088 245.107C143.953 244.757 144.88 244.585 145.812 244.6C146.745 244.615 147.665 244.817 148.518 245.194C149.371 245.571 150.14 246.116 150.778 246.795L152.23 248.245L153.681 246.795C154.327 246.15 155.094 245.638 155.938 245.288C156.782 244.939 157.687 244.759 158.601 244.759C159.514 244.759 160.419 244.939 161.263 245.288C162.107 245.638 162.874 246.15 163.52 246.795C164.166 247.441 164.679 248.207 165.029 249.051C165.378 249.894 165.558 250.798 165.558 251.711C165.558 252.624 165.378 253.528 165.029 254.371C164.679 255.215 164.166 255.981 163.52 256.626H163.506Z" fill="white" stroke="#263238" stroke-linecap="round" stroke-linejoin="round"/>
<path d="M133.146 237.443H117.095V275.186H133.146V237.443Z" fill="#D36775" stroke="#263238" stroke-linecap="round" stroke-linejoin="round"/>
<path d="M144.524 218.332V227.061L171.56 237.443" stroke="#263238" stroke-linecap="round" stroke-linejoin="round"/>
<path d="M144.524 227.061L124.323 237.269V274.896" stroke="#263238" stroke-linecap="round" stroke-linejoin="round"/>
<path d="M180.761 187.041C177.423 192.986 171.589 197.8 166.67 202.077C159.791 208.037 151.461 211.763 146.918 220.797C146.706 221.22 146.378 221.573 145.972 221.818C145.567 222.062 145.1 222.187 144.627 222.178C144.153 222.169 143.692 222.026 143.297 221.766C142.901 221.507 142.587 221.14 142.39 220.71C134.191 203.875 107.067 200.946 105.079 179.124C104.31 170.67 109.273 161.434 114.875 155.416C120.041 149.863 132.29 142.83 138.443 150.341C140.62 153.024 141.911 154.546 144.698 157.765C147.484 154.546 148.761 153.024 150.938 150.341C157.382 142.439 168.135 150.341 173.2 155.677C179.005 161.869 184.288 170.177 183.359 179.109C183.048 181.904 182.164 184.604 180.761 187.041Z" fill="#FFBD8D" stroke="#263238" stroke-linecap="round" stroke-linejoin="round"/>
<path d="M171.792 157.011C174.695 160.361 175.566 164.261 173.781 165.827C171.996 167.393 168.237 165.827 165.363 162.55C162.49 159.273 161.605 155.3 163.375 153.734C165.146 152.168 168.919 153.676 171.792 157.011Z" fill="white"/>
<path opacity="0.49" d="M174.492 159.795C179.571 165.697 179.426 174.136 174.187 178.645C168.948 183.155 160.56 182.053 155.481 176.151C150.401 170.25 150.532 161.811 155.785 157.301C161.039 152.792 169.412 153.908 174.492 159.795Z" fill="white"/>
<path d="M136.527 151.139C138.385 153.299 138.791 155.996 137.427 157.171C136.063 158.345 133.436 157.548 131.622 155.387C129.808 153.227 129.373 150.53 130.737 149.355C132.101 148.181 134.67 148.978 136.527 151.139Z" fill="white"/>
<path d="M129.141 203.194C119.766 196.814 109.534 191.014 108.388 178.384C107.749 171.468 111.29 163.986 115.644 158.49" fill="#FFE5D2"/>
<path d="M129.141 203.194C119.766 196.814 109.534 191.014 108.388 178.384C107.749 171.468 111.29 163.986 115.644 158.49" stroke="#263238" stroke-linecap="round" stroke-linejoin="round"/>
<path d="M134.713 207.254C133.828 206.529 132.899 205.804 131.97 205.166Z" fill="#FF667A"/>
<path d="M134.713 207.254C133.828 206.529 132.899 205.804 131.97 205.166" stroke="#263238" stroke-linecap="round" stroke-linejoin="round"/>
<path d="M148.384 158.534C148.384 158.534 154.61 150.066 159.355 150.066Z" fill="#FF667A"/>
<path d="M148.384 158.534C148.384 158.534 154.61 150.066 159.355 150.066" stroke="#263238" stroke-linecap="round" stroke-linejoin="round"/>
<path d="M118.445 155.547C118.445 155.547 123.437 151.313 126.427 151.313Z" fill="#FF667A"/>
<path d="M118.445 155.547C118.445 155.547 123.437 151.313 126.427 151.313" stroke="#263238" stroke-linecap="round" stroke-linejoin="round"/>
<path d="M359.718 266.15H280.451V344.001H359.718V266.15Z" fill="#7DC74F" stroke="#263238" stroke-linecap="round" stroke-linejoin="round"/>
<path d="M359.732 344H392.821V266.15H359.732V344Z" fill="#56992C" stroke="#263238" stroke-linecap="round" stroke-linejoin="round"/>
<path d="M336.251 226.739V244.733L280.451 266.15" stroke="#263238" stroke-linecap="round" stroke-linejoin="round"/>
<path d="M336.251 244.733L377.916 265.802V343.406" stroke="#263238" stroke-linecap="round" stroke-linejoin="round"/>
<path d="M411.701 162.185C404.808 174.437 392.835 184.37 382.677 193.186C368.498 205.482 351.315 213.181 341.955 231.814C341.511 232.679 340.833 233.401 339.999 233.9C339.165 234.399 338.207 234.654 337.235 234.636C336.262 234.617 335.315 234.327 334.5 233.798C333.684 233.268 333.034 232.52 332.623 231.64C315.702 196.912 259.756 190.88 255.708 145.858C254.126 128.458 264.415 109.376 275.923 96.9495C286.575 85.509 311.885 70.9945 324.511 86.495C329.024 92.0195 331.665 95.195 337.412 101.792C343.217 95.166 345.801 92.0195 350.314 86.495C363.578 70.1825 385.768 86.321 396.217 97.486C408.204 110.26 419.088 127.559 417.216 145.814C416.528 151.593 414.651 157.167 411.701 162.185Z" fill="#FFBD8D" stroke="#263238" stroke-linecap="round" stroke-linejoin="round"/>
<path d="M393.285 100.255C399.221 107.143 401.064 115.277 397.392 118.424C393.72 121.57 385.956 118.54 379.977 111.652C373.998 104.765 372.199 96.6305 375.856 93.484C379.513 90.3375 387.379 93.3679 393.285 100.255Z" fill="white"/>
<path opacity="0.49" d="M398.213 144.88C409.044 135.565 409.33 118.154 398.851 105.991C388.373 93.8275 371.099 91.5185 360.268 100.833C349.437 110.148 349.151 127.559 359.629 139.722C370.107 151.885 387.382 154.194 398.213 144.88Z" fill="white"/>
<path d="M320.622 88.1335C324.453 92.585 325.28 98.153 322.465 100.574C319.649 102.996 314.251 101.357 310.419 96.906C306.588 92.4545 305.775 86.8865 308.591 84.465C311.406 82.0435 316.718 83.682 320.622 88.1335Z" fill="white"/>
<path d="M305.311 195.492C285.966 182.34 264.865 170.363 262.485 144.321C261.193 130.053 268.406 114.64 277.491 103.301" fill="#FFE5D2"/>
<path d="M305.311 195.492C285.966 182.34 264.865 170.363 262.485 144.321C261.193 130.053 268.406 114.64 277.491 103.301" stroke="#263238" stroke-linecap="round" stroke-linejoin="round"/>
<path d="M316.805 203.8C314.976 202.35 313.075 200.9 311.145 199.45Z" fill="#FF667A"/>
<path d="M316.805 203.8C314.976 202.35 313.075 200.9 311.145 199.45" stroke="#263238" stroke-linecap="round" stroke-linejoin="round"/>
<path d="M344.988 103.387C344.988 103.387 357.846 85.9874 367.627 85.9874Z" fill="#FF667A"/>
<path d="M344.988 103.387C344.988 103.387 357.846 85.9874 367.627 85.9874" stroke="#263238" stroke-linecap="round" stroke-linejoin="round"/>
<path d="M283.267 97.2105C283.267 97.2105 293.556 88.5105 299.724 88.5105Z" fill="#FF667A"/>
<path d="M283.267 97.2105C283.267 97.2105 293.556 88.5105 299.724 88.5105" stroke="#263238" stroke-linecap="round" stroke-linejoin="round"/>
<path d="M337.79 297.673H324.67V284.565H311.29V297.673H298.185V311.027H311.29V324.135H324.67V311.027H337.79V297.673Z" fill="white" stroke="#263238" stroke-linecap="round" stroke-linejoin="round"/>
<path d="M619.38 486.337C619.38 486.337 620.613 474.418 619.8 471.344C618.988 468.27 616.709 466.414 616.1 462.716C615.49 459.019 614.242 457.38 612.602 460.048C610.962 462.716 612.399 467.646 612.399 467.646C612.399 467.646 602.748 459.439 600.891 456.974C599.033 454.509 596.377 456.148 596.784 458.004C597.19 459.86 604.998 467.849 604.998 467.849L603.155 468.27C603.155 468.27 596.16 461.02 594.114 459.439C592.067 457.859 589.76 458.207 589.382 460.048C589.005 461.89 599.454 471.547 599.454 471.547C599.454 471.547 592.053 467.443 589.789 466.008C587.525 464.572 586.712 464.369 586.509 466.617C586.306 468.864 588.352 470.967 591.24 472.17C594.128 473.374 597.393 474.635 597.393 474.635C597.393 474.635 590.413 473.809 588.149 473.403C585.885 472.997 586.915 475.65 589.382 476.883C591.853 477.946 594.394 478.837 596.987 479.551C598.46 481.736 600.111 483.797 601.921 485.713C604.246 487.716 606.798 489.439 609.526 490.846C609.526 490.846 629.451 536.028 631.294 539.305C633.137 542.582 645.879 543.409 648.97 543.206C652.062 543.003 660.261 526.574 660.261 526.574L663.309 511.436C661.136 512.53 658.867 513.423 656.531 514.104C652.468 515.337 641.54 520.267 641.54 520.267C641.54 520.267 629.001 503.635 623.864 495.834C618.727 488.033 619.38 486.337 619.38 486.337Z" fill="#FFD6BE" stroke="#263238" stroke-linecap="round" stroke-linejoin="round"/>
<path d="M612.399 467.704L612.602 471.808C612.602 471.808 608.699 473.461 609.7 482.697" fill="#E3E3E3"/>
<path d="M612.399 467.704L612.602 471.808C612.602 471.808 608.699 473.461 609.7 482.697" stroke="#263238" stroke-linecap="round" stroke-linejoin="round"/>
<path d="M717.991 457.076C717.991 457.076 731.59 455.872 735.174 468.676C738.759 481.479 736.379 499.416 732.78 505.796C729.18 512.176 730.791 519.774 732.388 520.571C733.984 521.369 737.583 519.368 735.972 522.166C734.361 524.965 731.981 528.561 721.199 524.167C710.416 519.774 705.235 510.189 708.413 497.415C711.591 484.64 713.202 479.855 714.407 471.068C714.965 466.264 716.171 461.557 717.991 457.076Z" fill="#263238" stroke="#263238" stroke-linecap="round" stroke-linejoin="round"/>
<path d="M675.644 430.323C675.644 430.323 670.841 425.973 681.232 423.537C691.622 421.101 702.812 427.133 709.211 437.907C715.611 448.68 721.199 457.076 717.991 471.054C714.784 485.032 699.59 492.209 699.59 492.209C699.59 492.209 700.388 495.399 694.786 496.559C689.184 497.719 683.176 497.763 682.407 490.571C681.638 483.379 683.205 477.39 682.407 476.201C681.609 475.012 674.019 471.402 673.613 466.211C673.206 461.02 673.206 459.831 672.016 456.235C670.826 452.639 672.016 438.269 672.016 438.269L675.644 430.323Z" fill="#263238" stroke="#263238" stroke-linecap="round" stroke-linejoin="round"/>
<path d="M675.644 430.323C675.644 430.323 658.461 441.923 657.663 447.1C656.865 452.276 658.055 453.886 655.661 456.684C653.266 459.483 644.472 461.034 644.878 464.659C645.344 467.124 646.602 469.369 648.462 471.054C648.462 471.054 648.869 490.614 651.67 491.818C654.471 493.021 665.645 491.412 665.645 491.412L667.662 508.986L686.441 507.782L686.05 489.411L688.038 483.828C688.038 483.828 695.628 479.029 695.294 473.04C694.96 467.052 692.101 466.254 689.3 467.052C686.892 467.956 684.609 469.164 682.509 470.648C682.509 470.648 683.699 460.672 682.102 458.279C680.506 455.887 676.109 452.682 674.919 446.302C673.729 439.922 675.644 430.323 675.644 430.323Z" fill="#FFD6BE" stroke="#263238" stroke-linecap="round" stroke-linejoin="round"/>
<path d="M652.468 473.04C652.468 473.04 658.055 474.65 661.654 471.054" stroke="#263238" stroke-linecap="round" stroke-linejoin="round"/>
<path d="M665.079 455.988C664.151 457.859 662.757 459.077 661.974 458.685C661.19 458.294 661.292 456.452 662.22 454.567C663.149 452.682 664.542 451.493 665.326 451.885C666.11 452.276 666.008 454.103 665.079 455.988Z" fill="#263238"/>
<path d="M664.049 446.302C664.049 446.302 670.042 443.098 670.042 449.884" stroke="#263238" stroke-linecap="round" stroke-linejoin="round"/>
<path d="M687.98 483.828C687.98 483.828 679.592 486.627 678.387 483.031" stroke="#263238" stroke-linecap="round" stroke-linejoin="round"/>
<path d="M694.017 516.163C694.017 516.163 690.418 503.389 684.424 502.591C678.431 501.794 678.837 501.388 667.648 508.986C656.459 516.584 638.478 535.332 637.274 547.309C636.256 556.118 636.801 565.037 638.884 573.656C640.481 581.239 629.684 678.259 629.684 678.259H739.571C739.571 678.259 731.981 636.339 722.389 615.981C712.796 595.623 701.607 576.454 700.011 571.669C698.414 566.884 698.022 538.131 696.818 531.736C695.613 525.342 694.017 516.163 694.017 516.163Z" fill="#FF9F69" stroke="#263238" stroke-linecap="round" stroke-linejoin="round"/>
<path d="M685.556 587.068C689.817 586.531 693.977 585.378 697.906 583.646" stroke="#263238" stroke-linecap="round" stroke-linejoin="round"/>
<path d="M643.195 580.123C643.195 580.123 659.71 587.59 677.763 587.576" stroke="#263238" stroke-linecap="round" stroke-linejoin="round"/>
<path d="M663.105 628.118L657.91 584.821L654.384 613.038" stroke="#263238" stroke-linecap="round" stroke-linejoin="round"/>
<path d="M664.963 643.604L663.947 635.15" stroke="#263238" stroke-linecap="round" stroke-linejoin="round"/>
<path d="M691.448 587.764L697.326 616.561" stroke="#263238" stroke-linecap="round" stroke-linejoin="round"/>
<path d="M594.97 474.998C594.97 474.998 594.157 459.396 593.127 458.366C592.096 457.337 587.569 454.263 586.335 450.971C585.101 447.68 582.852 446.621 581.981 449.521C581.111 452.421 583.012 455.321 583.621 456.293C584.21 457.089 584.63 457.997 584.855 458.961C584.809 459.465 584.672 459.956 584.448 460.411L578.905 456.496C578.905 456.496 571.91 452.146 569.66 449.521C567.411 446.897 565.539 448.695 565.307 450.348C565.074 452.001 568.209 455.06 569.414 456.293C570.618 457.525 576.234 462.267 576.234 462.267L573.97 463.093L565.539 455.698C563.696 454.06 560.822 452.001 559.734 453.03C558.645 454.06 558.703 455.278 560.343 457.134C561.983 458.99 570.415 467.197 570.415 467.197C570.415 467.197 566.061 465.138 564.044 463.905C562.027 462.673 560.14 461.237 559.937 463.296C559.734 465.355 563.231 467.806 564.45 469.096C565.669 470.387 569.805 475.665 572.882 477.927C575.959 480.189 585.827 482.857 585.827 482.857C585.827 482.857 600.427 529.46 604.113 537.681C607.799 545.903 608.466 549.18 611.369 550.615C614.271 552.051 646.3 552.877 665.616 547.947C684.932 543.017 688.633 542.147 690.694 532.548C692.754 522.949 686.79 510.16 676.718 509.957C666.647 509.754 656.401 518.179 645.284 521.05C634.168 523.921 623.08 527.212 623.08 527.212C623.08 527.212 608.162 504.563 603.808 496.559C600.386 489.576 597.434 482.373 594.97 474.998Z" fill="#FFD6BE" stroke="#263238" stroke-linecap="round" stroke-linejoin="round"/>
<path d="M566.816 471.706C566.816 471.706 571.953 474.374 572.621 474.606" stroke="#263238" stroke-linecap="round" stroke-linejoin="round"/>
<path d="M227.729 457.54C227.729 457.54 225.364 434.775 226.931 428.873C228.498 422.972 232.837 419.448 234.013 412.387C235.188 405.325 237.554 402.237 240.689 407.283C243.823 412.329 241.08 421.783 241.08 421.783C241.08 421.783 259.555 406.079 263.096 401.367C266.637 396.654 271.803 399.786 270.961 403.324C270.12 406.862 255.23 422.174 255.23 422.174L258.771 422.957C258.771 422.957 272.137 409.211 276.07 406.079C280.003 402.947 284.313 403.716 285.111 407.254C285.909 410.792 265.853 429.236 265.853 429.236C265.853 429.236 279.988 421.391 284.313 418.636C288.638 415.881 290.219 415.504 290.611 419.811C291.003 424.117 287.07 428.061 281.57 430.425C276.07 432.788 269.771 435.137 269.771 435.137C269.771 435.137 283.137 433.557 287.462 432.774C291.787 431.991 289.828 437.124 285.111 439.458C280.395 441.486 275.546 443.192 270.599 444.562C267.781 448.738 264.626 452.675 261.166 456.336C256.449 461.049 246.653 466.153 246.653 466.153C246.653 466.153 208.544 552.544 205.003 558.822C201.462 565.101 177.095 566.681 171.203 566.29C165.311 565.898 149.58 534.477 149.58 534.477L143.688 505.477C147.846 507.574 152.189 509.283 156.662 510.581C164.513 512.944 185.353 522.369 185.353 522.369C185.353 522.369 209.255 490.469 219.08 475.607C228.905 460.744 227.729 457.54 227.729 457.54Z" fill="#AA8282" stroke="#263238" stroke-linecap="round" stroke-linejoin="round"/>
<path d="M241.08 421.812L240.688 429.656C240.688 429.656 248.162 432.803 246.189 450.478" stroke="#263238" stroke-linecap="round" stroke-linejoin="round"/>
<path d="M106.971 487.83C106.971 487.83 88.1052 500.402 78.6721 520.035C69.239 539.668 65.3062 550.659 67.6717 565.579C70.0372 580.5 78.2803 634.309 78.2803 646.083C78.2803 657.857 77.1048 675.083 77.1048 675.083H186.76C186.76 675.083 189.503 628.364 189.111 595.768C188.72 563.172 177.719 530.968 170.637 516.018C163.555 501.069 158.069 495.211 147.838 491.281C137.607 487.352 115.214 483.901 106.971 487.83Z" fill="#FF667A" stroke="#263238" stroke-linecap="round" stroke-linejoin="round"/>
<path d="M145.85 596.638C145.85 596.638 99.3233 645.938 88.7583 652.985" stroke="#263238" stroke-linecap="round" stroke-linejoin="round"/>
<path d="M104.562 654.319C101.44 657.475 98.0402 660.343 94.4036 662.889" stroke="#263238" stroke-linecap="round" stroke-linejoin="round"/>
<path d="M136.678 621.288C136.678 621.288 121.019 638.253 108.335 650.636" stroke="#263238" stroke-linecap="round" stroke-linejoin="round"/>
<path d="M139.595 382.981C139.595 382.981 124.256 375.528 109.322 381.023C94.3891 386.519 73.1284 402.614 69.6309 419.898C66.1334 437.182 70.8064 457.206 80.6313 468.197C90.4562 479.188 106.188 481.16 106.188 481.16L103.038 493.369C103.038 493.369 126.636 504.331 131.744 508.652C136.852 512.973 159.738 528.068 158.534 522.036C155.007 504.433 157.271 495.733 159.637 487.874C162.002 480.015 165.137 473.736 172.611 469.807C180.085 465.877 189.503 458.816 187.936 449.391C186.369 439.966 180.52 428.931 180.52 428.931C180.52 428.931 183.669 417.143 180.912 414.431C178.155 411.72 165.195 413.257 162.844 408.153C160.493 403.049 159.695 398.322 156.154 394.407C152.613 390.492 139.595 382.981 139.595 382.981Z" fill="#AA8282" stroke="#263238" stroke-linecap="round" stroke-linejoin="round"/>
<path d="M155.472 406.369C156.647 408.689 156.72 411.009 155.66 411.546C154.601 412.082 152.758 410.632 151.611 408.298C150.465 405.963 150.363 403.658 151.423 403.121C152.482 402.585 154.311 404.035 155.472 406.369Z" fill="#263238"/>
<path d="M143.122 400.265C143.122 400.265 145.095 393.58 152.555 395.915" stroke="#263238" stroke-linecap="round" stroke-linejoin="round"/>
<path d="M175.354 433.644C175.354 433.644 168.286 435.601 162.786 432.469" stroke="#263238" stroke-linecap="round" stroke-linejoin="round"/>
<path d="M131.947 380.371C124.508 378.342 116.632 378.569 109.322 381.023C94.3891 386.519 73.1284 402.614 69.6309 419.898C66.1334 437.182 70.8064 457.206 80.6313 468.197C88.1342 476.578 99.033 479.71 103.851 480.725C108.723 478.771 112.762 475.182 115.272 470.575C117.606 466.704 119.578 462.627 121.164 458.395C121.164 458.395 114.082 461.15 108.582 460.353C103.082 459.555 93.2571 457.612 93.6489 448.97C94.0408 440.328 102.69 436.805 105.839 439.545C108.989 442.286 112.123 442.692 115.664 437.979C119.205 433.267 110.948 425.799 113.299 423.059C115.65 420.318 119.191 412.909 116.84 408.559C114.489 404.209 103.474 405.021 109.758 395.987C114.474 389.114 126.389 382.966 131.947 380.371Z" fill="#263238" stroke="#263238" stroke-linecap="round" stroke-linejoin="round"/>
<path d="M121.121 458.381C121.121 458.381 127.013 465.051 128.972 465.848C133.198 466.99 137.613 467.256 141.946 466.631" stroke="#263238" stroke-linecap="round" stroke-linejoin="round"/>
<path d="M266.535 446.969C266.535 446.969 268.117 417.114 270.076 415.156C272.035 413.199 280.685 407.297 283.05 401.019C285.416 394.74 289.726 392.768 291.293 398.264C292.861 403.759 289.334 409.269 288.159 411.227C286.983 413.184 285.793 415.156 285.793 416.331C285.883 417.289 286.148 418.223 286.577 419.086L297.2 411.618C297.2 411.618 310.551 403.382 314.876 398.264C319.201 393.145 322.742 396.698 323.133 399.844C323.525 402.991 317.633 408.878 315.268 411.227C312.902 413.576 302.308 422.624 302.308 422.624L306.662 424.19C306.662 424.19 319.23 413.199 322.771 410.052C326.312 406.906 331.812 402.976 333.771 404.948C335.73 406.92 335.745 409.298 332.595 412.807C329.446 416.316 313.338 432.049 313.338 432.049C313.338 432.049 321.595 428.119 325.528 425.756C329.461 423.392 332.987 420.652 333.379 424.581C333.771 428.511 327.095 433.281 324.672 435.572C322.248 437.863 314.513 448.144 308.563 452.465C302.613 456.786 283.805 461.89 283.805 461.89C283.805 461.89 255.897 551.021 248.83 566.739C241.762 582.457 240.572 588.721 235.072 591.476C229.572 594.231 168.315 595.826 131.309 586.372C94.3019 576.918 87.2924 575.367 83.4176 556.923C79.5428 538.479 90.8915 514.119 110.149 513.727C129.407 513.336 149.057 529.431 170.274 534.926C191.491 540.422 212.723 546.7 212.723 546.7C212.723 546.7 241.414 503.505 249.672 488.193C257.929 472.881 266.535 446.969 266.535 446.969Z" fill="#AA8282" stroke="#263238" stroke-linecap="round" stroke-linejoin="round"/>
<path d="M320.376 440.705C320.376 440.705 310.551 445.809 309.376 446.201" stroke="#263238" stroke-linecap="round" stroke-linejoin="round"/>
</g>
<defs>
<clipPath id="clip0_444_617">
<rect width="784" height="674" fill="white"/>
</clipPath>
</defs>
</svg>
