<svg width="21" height="17" viewBox="0 0 21 17" fill="none" xmlns="http://www.w3.org/2000/svg">
<path d="M0.75 4.75H20.25M0.75 5.5H20.25M3.75 10.75H9.75M3.75 13H6.75M3 16H18C18.5967 16 19.169 15.7629 19.591 15.341C20.0129 14.919 20.25 14.3467 20.25 13.75V3.25C20.25 2.65326 20.0129 2.08097 19.591 1.65901C19.169 1.23705 18.5967 1 18 1H3C2.40326 1 1.83097 1.23705 1.40901 1.65901C0.987053 2.08097 0.75 2.65326 0.75 3.25V13.75C0.75 14.3467 0.987053 14.919 1.40901 15.341C1.83097 15.7629 2.40326 16 3 16Z" stroke="white" stroke-width="1.5" stroke-linecap="round" stroke-linejoin="round"/>
</svg>
