<svg width="21" height="21" viewBox="0 0 21 21" fill="none" xmlns="http://www.w3.org/2000/svg">
<path d="M7.5 15.75V16.757C7.50005 17.1511 7.42244 17.5414 7.27162 17.9055C7.1208 18.2696 6.89971 18.6004 6.621 18.879L6 19.5H15L14.379 18.879C14.1003 18.6004 13.8792 18.2696 13.7284 17.9055C13.5776 17.5414 13.5 17.1511 13.5 16.757V15.75M19.5 3.75V13.5C19.5 14.0967 19.2629 14.669 18.841 15.091C18.419 15.5129 17.8467 15.75 17.25 15.75H3.75C3.15326 15.75 2.58097 15.5129 2.15901 15.091C1.73705 14.669 1.5 14.0967 1.5 13.5V3.75M19.5 3.75C19.5 3.15326 19.2629 2.58097 18.841 2.15901C18.419 1.73705 17.8467 1.5 17.25 1.5H3.75C3.15326 1.5 2.58097 1.73705 2.15901 2.15901C1.73705 2.58097 1.5 3.15326 1.5 3.75M19.5 3.75V10.5C19.5 11.0967 19.2629 11.669 18.841 12.091C18.419 12.5129 17.8467 12.75 17.25 12.75H3.75C3.15326 12.75 2.58097 12.5129 2.15901 12.091C1.73705 11.669 1.5 11.0967 1.5 10.5V3.75" stroke="white" stroke-width="1.5" stroke-linecap="round" stroke-linejoin="round"/>
</svg>
