<svg width="20" height="21" viewBox="0 0 20 21" fill="none" xmlns="http://www.w3.org/2000/svg">
<path d="M10 5.5V15.5M7.5 13.1517L8.2325 13.7008C9.20833 14.4333 10.7908 14.4333 11.7675 13.7008C12.7442 12.9683 12.7442 11.7817 11.7675 11.0492C11.28 10.6825 10.64 10.5 10 10.5C9.39583 10.5 8.79167 10.3167 8.33083 9.95083C7.40917 9.21833 7.40917 8.03167 8.33083 7.29917C9.2525 6.56667 10.7475 6.56667 11.6692 7.29917L12.015 7.57417M17.5 10.5C17.5 11.4849 17.306 12.4602 16.9291 13.3701C16.5522 14.2801 15.9997 15.1069 15.3033 15.8033C14.6069 16.4997 13.7801 17.0522 12.8701 17.4291C11.9602 17.806 10.9849 18 10 18C9.01509 18 8.03982 17.806 7.12987 17.4291C6.21993 17.0522 5.39314 16.4997 4.6967 15.8033C4.00026 15.1069 3.44781 14.2801 3.0709 13.3701C2.69399 12.4602 2.5 11.4849 2.5 10.5C2.5 8.51088 3.29018 6.60322 4.6967 5.1967C6.10322 3.79018 8.01088 3 10 3C11.9891 3 13.8968 3.79018 15.3033 5.1967C16.7098 6.60322 17.5 8.51088 17.5 10.5Z" stroke="#2D2E38" stroke-width="1.5" stroke-linecap="round" stroke-linejoin="round"/>
<path d="M10 5.5V15.5M7.5 13.1517L8.2325 13.7008C9.20833 14.4333 10.7908 14.4333 11.7675 13.7008C12.7442 12.9683 12.7442 11.7817 11.7675 11.0492C11.28 10.6825 10.64 10.5 10 10.5C9.39583 10.5 8.79167 10.3167 8.33083 9.95083C7.40917 9.21833 7.40917 8.03167 8.33083 7.29917C9.2525 6.56667 10.7475 6.56667 11.6692 7.29917L12.015 7.57417M17.5 10.5C17.5 11.4849 17.306 12.4602 16.9291 13.3701C16.5522 14.2801 15.9997 15.1069 15.3033 15.8033C14.6069 16.4997 13.7801 17.0522 12.8701 17.4291C11.9602 17.806 10.9849 18 10 18C9.01509 18 8.03982 17.806 7.12987 17.4291C6.21993 17.0522 5.39314 16.4997 4.6967 15.8033C4.00026 15.1069 3.44781 14.2801 3.0709 13.3701C2.69399 12.4602 2.5 11.4849 2.5 10.5C2.5 8.51088 3.29018 6.60322 4.6967 5.1967C6.10322 3.79018 8.01088 3 10 3C11.9891 3 13.8968 3.79018 15.3033 5.1967C16.7098 6.60322 17.5 8.51088 17.5 10.5Z" stroke="#2D2E38" stroke-width="1.5" stroke-linecap="round" stroke-linejoin="round"/>
</svg>
