<svg width="52" height="49" viewBox="0 0 52 49" fill="none" xmlns="http://www.w3.org/2000/svg">
<path d="M47.4231 19.3211L0 33.5928L4.50353 48.9819L51.9266 34.7101L47.4231 19.3211Z" fill="#FF667A"/>
<path d="M7.7594 15.2909H2.33911V11.3402H11.9262V36.4527H7.7594V15.2909ZM28.7778 17.4552C28.7778 21.3371 26.0678 24.051 22.3074 24.051C18.5471 24.051 15.8369 21.3371 15.8369 17.4552C15.8369 13.6075 18.5471 10.8592 22.3074 10.8592C26.0678 10.8592 28.7778 13.6075 28.7778 17.4552ZM42.3625 11.3745L23.5608 36.4527H19.4279L38.2295 11.3745H42.3625ZM25.4918 17.4552C25.4918 15.4626 24.2044 14.0885 22.3074 14.0885C20.4103 14.0885 19.1569 15.4626 19.1569 17.4552C19.1569 19.4477 20.4442 20.8219 22.3074 20.8219C24.2044 20.8219 25.4918 19.4477 25.4918 17.4552ZM45.9873 30.3034C45.9873 34.1511 43.311 36.8994 39.5507 36.8994C35.7565 36.8994 33.0802 34.1511 33.0802 30.3034C33.0802 26.4559 35.7565 23.7076 39.5507 23.7076C43.311 23.7076 45.9873 26.4559 45.9873 30.3034ZM42.7012 30.3034C42.7012 28.3109 41.4139 26.9367 39.5507 26.9367C37.6535 26.9367 36.3662 28.3109 36.3662 30.3034C36.3662 32.2959 37.6535 33.6701 39.5507 33.6701C41.4139 33.6701 42.7012 32.2959 42.7012 30.3034Z" fill="#252525"/>
</svg>
