<svg width="127" height="190" viewBox="0 0 127 190" fill="none" xmlns="http://www.w3.org/2000/svg">
<path d="M81.1433 133.344H20.1143V188.563H81.1433V133.344Z" fill="#7DC74F" stroke="#263238" stroke-linecap="round" stroke-linejoin="round"/>
<path d="M81.1546 188.563H106.63L106.63 133.344H81.1546V188.563Z" fill="#56992C" stroke="#263238" stroke-linecap="round" stroke-linejoin="round"/>
<path d="M63.0759 105.39V118.154L20.1143 133.344" stroke="#263238" stroke-linecap="round" stroke-linejoin="round"/>
<path d="M63.0759 118.154L95.1547 133.097V188.141" stroke="#263238" stroke-linecap="round" stroke-linejoin="round"/>
<path d="M121.166 59.6027C115.859 68.2933 106.641 75.3384 98.8196 81.5915C87.9032 90.3129 74.6739 95.7741 67.4671 108.99C67.1255 109.603 66.6038 110.116 65.9614 110.47C65.319 110.823 64.5816 111.004 63.833 110.991C63.0845 110.978 62.3549 110.773 61.7273 110.397C61.0996 110.021 60.5991 109.491 60.2826 108.867C47.2545 84.2346 4.18108 79.9562 1.06371 48.0221C-0.154189 35.6805 7.76773 22.1458 16.6282 13.3317C24.8295 5.2171 44.3159 -5.07791 54.0367 5.91646C57.5116 9.83494 59.5452 12.0873 63.9699 16.7668C68.4392 12.0667 70.4281 9.83494 73.903 5.91646C84.1155 -5.65386 101.2 5.79304 109.244 13.7123C118.474 22.7731 126.854 35.0428 125.412 47.9913C124.883 52.09 123.437 56.0435 121.166 59.6027Z" fill="#FFBD8D" stroke="#263238" stroke-linecap="round" stroke-linejoin="round"/>
<path d="M106.987 15.6767C111.557 20.5619 112.976 26.3316 110.149 28.5634C107.322 30.7952 101.345 28.6457 96.7412 23.7604C92.1378 18.8752 90.7523 13.1055 93.568 10.8737C96.3837 8.6419 102.44 10.7914 106.987 15.6767Z" fill="white"/>
<path opacity="0.49" d="M110.781 47.3282C119.12 40.7213 119.34 28.3717 111.273 19.7445C103.205 11.1173 89.9054 9.47949 81.5664 16.0864C73.2274 22.6932 73.0072 35.0429 81.0746 43.6701C89.1421 52.2973 102.442 53.9351 110.781 47.3282Z" fill="white"/>
<path d="M51.0422 7.07861C53.9919 10.236 54.6288 14.1854 52.4612 15.9029C50.2935 17.6205 46.137 16.4583 43.1873 13.3009C40.2375 10.1435 39.6118 6.19412 41.7794 4.47657C43.9471 2.75903 48.0365 3.9212 51.0422 7.07861Z" fill="white"/>
<path d="M39.2543 83.2267C24.3602 73.8985 8.11407 65.4033 6.28163 46.9319C5.2872 36.8117 10.8404 25.8791 17.8349 17.8364" fill="#FFE5D2"/>
<path d="M39.2543 83.2267C24.3602 73.8985 8.11407 65.4033 6.28163 46.9319C5.2872 36.8117 10.8404 25.8791 17.8349 17.8364" stroke="#263238" stroke-linecap="round" stroke-linejoin="round"/>
<path d="M48.1037 89.1198C46.6959 88.0914 45.2322 87.0629 43.7461 86.0344Z" fill="#FF667A"/>
<path d="M48.1037 89.1198C46.6959 88.0914 45.2322 87.0629 43.7461 86.0344" stroke="#263238" stroke-linecap="round" stroke-linejoin="round"/>
<path d="M69.8022 17.8982C69.8022 17.8982 79.7019 5.55652 87.2327 5.55652Z" fill="#FF667A"/>
<path d="M69.8022 17.8982C69.8022 17.8982 79.7019 5.55652 87.2327 5.55652" stroke="#263238" stroke-linecap="round" stroke-linejoin="round"/>
<path d="M22.282 13.5169C22.282 13.5169 30.2039 7.34607 34.9526 7.34607Z" fill="#FF667A"/>
<path d="M22.282 13.5169C22.282 13.5169 30.2039 7.34607 34.9526 7.34607" stroke="#263238" stroke-linecap="round" stroke-linejoin="round"/>
<path d="M64.2602 155.703H54.1595V146.406H43.8576V155.703H33.7681V165.175H43.8576V174.473H54.1595V165.175H64.2602V155.703Z" fill="white" stroke="#263238" stroke-linecap="round" stroke-linejoin="round"/>
</svg>
