<svg width="524" height="547" viewBox="0 0 524 547" fill="none" xmlns="http://www.w3.org/2000/svg">
<path d="M28.6461 546.186H67.075V508.443H28.6461L28.6461 546.186Z" fill="#FF667A" stroke="#263238" stroke-linecap="round" stroke-linejoin="round"/>
<path d="M59.0058 527.626L47.7152 538.922L36.4245 527.626C35.7454 526.987 35.2016 526.219 34.8254 525.366C34.4492 524.513 34.2483 523.593 34.2346 522.661C34.221 521.729 34.3948 520.804 34.7457 519.941C35.0967 519.077 35.6177 518.293 36.2778 517.634C36.9379 516.975 37.7237 516.456 38.5885 516.107C39.4533 515.757 40.3796 515.585 41.3123 515.6C42.245 515.615 43.1652 515.817 44.0183 516.194C44.8714 516.571 45.64 517.116 46.2784 517.795L47.7297 519.245L49.1809 517.795C49.827 517.15 50.594 516.638 51.4381 516.288C52.2822 515.939 53.187 515.759 54.1006 515.759C55.0143 515.759 55.919 515.939 56.7632 516.288C57.6073 516.638 58.3743 517.15 59.0203 517.795C59.6664 518.441 60.1789 519.207 60.5285 520.051C60.8782 520.894 61.0581 521.798 61.0581 522.711C61.0581 523.624 60.8782 524.528 60.5285 525.371C60.1789 526.215 59.6664 526.981 59.0203 527.626H59.0058Z" fill="white" stroke="#263238" stroke-linecap="round" stroke-linejoin="round"/>
<path d="M28.6459 508.443H12.5952V546.186H28.6459V508.443Z" fill="#D36775" stroke="#263238" stroke-linecap="round" stroke-linejoin="round"/>
<path d="M40.0237 489.332V498.061L67.0603 508.443" stroke="#263238" stroke-linecap="round" stroke-linejoin="round"/>
<path d="M40.0238 498.061L19.8225 508.269V545.896" stroke="#263238" stroke-linecap="round" stroke-linejoin="round"/>
<path d="M76.2612 458.041C72.9233 463.986 67.0893 468.8 62.1696 473.077C55.2907 479.037 46.9606 482.763 42.4182 491.797C42.2055 492.22 41.8775 492.573 41.4721 492.818C41.0667 493.062 40.6003 493.187 40.1269 493.178C39.6535 493.169 39.1923 493.026 38.7965 492.766C38.4008 492.507 38.0867 492.14 37.8904 491.71C29.6909 474.875 2.56721 471.946 0.579014 450.124C-0.190143 441.67 4.7731 432.434 10.3749 426.416C15.5413 420.863 27.7897 413.83 33.943 421.341C36.1199 424.024 37.4115 425.546 40.1978 428.765C42.9842 425.546 44.2613 424.024 46.4382 421.341C52.8817 413.439 63.6354 421.341 68.7002 426.677C74.5051 432.869 79.7877 441.177 78.8589 450.109C78.5484 452.904 77.664 455.604 76.2612 458.041Z" fill="#FFBD8D" stroke="#263238" stroke-linecap="round" stroke-linejoin="round"/>
<path d="M67.2925 428.011C70.195 431.361 71.0657 435.261 69.2807 436.827C67.4957 438.393 63.737 436.827 60.8635 433.55C57.99 430.273 57.1048 426.3 58.8753 424.734C60.6458 423.168 64.419 424.676 67.2925 428.011Z" fill="white"/>
<path opacity="0.49" d="M69.9917 430.795C75.0711 436.697 74.926 445.136 69.687 449.645C64.448 454.155 56.0598 453.053 50.9805 447.151C45.9012 441.25 46.0318 432.811 51.2853 428.301C56.5387 423.792 64.9124 424.908 69.9917 430.795Z" fill="white"/>
<path d="M32.0274 422.139C33.885 424.299 34.2913 426.996 32.9272 428.171C31.563 429.345 28.9363 428.548 27.1222 426.387C25.3082 424.227 24.8728 421.53 26.237 420.355C27.6011 419.181 30.1698 419.978 32.0274 422.139Z" fill="white"/>
<path d="M24.6407 474.194C15.2657 467.814 5.03445 462.014 3.88797 449.384C3.24943 442.468 6.79045 434.986 11.1442 429.49" fill="#FFE5D2"/>
<path d="M24.6407 474.194C15.2657 467.814 5.03445 462.014 3.88797 449.384C3.24943 442.468 6.79045 434.986 11.1442 429.49" stroke="#263238" stroke-linecap="round" stroke-linejoin="round"/>
<path d="M30.2133 478.254C29.328 477.529 28.3993 476.804 27.4705 476.166L30.2133 478.254Z" fill="#FF667A"/>
<path d="M30.2133 478.254C29.328 477.529 28.3993 476.804 27.4705 476.166" stroke="#263238" stroke-linecap="round" stroke-linejoin="round"/>
<path d="M43.884 429.534C43.884 429.534 50.1098 421.066 54.8554 421.066L43.884 429.534Z" fill="#FF667A"/>
<path d="M43.884 429.534C43.884 429.534 50.1098 421.066 54.8554 421.066" stroke="#263238" stroke-linecap="round" stroke-linejoin="round"/>
<path d="M13.9448 426.547C13.9448 426.547 18.9371 422.313 21.9266 422.313L13.9448 426.547Z" fill="#FF667A"/>
<path d="M13.9448 426.547C13.9448 426.547 18.9371 422.313 21.9266 422.313" stroke="#263238" stroke-linecap="round" stroke-linejoin="round"/>
<path d="M478.143 133.344H417.114V188.563H478.143V133.344Z" fill="#7DC74F" stroke="#263238" stroke-linecap="round" stroke-linejoin="round"/>
<path d="M478.155 188.563H503.63V133.344H478.155V188.563Z" fill="#56992C" stroke="#263238" stroke-linecap="round" stroke-linejoin="round"/>
<path d="M460.076 105.39V118.154L417.114 133.344" stroke="#263238" stroke-linecap="round" stroke-linejoin="round"/>
<path d="M460.076 118.154L492.155 133.097V188.141" stroke="#263238" stroke-linecap="round" stroke-linejoin="round"/>
<path d="M518.166 59.6027C512.859 68.2933 503.641 75.3384 495.82 81.5915C484.903 90.3129 471.674 95.7741 464.467 108.99C464.126 109.603 463.604 110.116 462.961 110.47C462.319 110.823 461.582 111.004 460.833 110.991C460.085 110.978 459.355 110.773 458.727 110.397C458.1 110.021 457.599 109.491 457.283 108.867C444.254 84.2346 401.181 79.9562 398.064 48.0221C396.846 35.6805 404.768 22.1458 413.628 13.3317C421.829 5.2171 441.316 -5.07791 451.037 5.91646C454.512 9.83494 456.545 12.0873 460.97 16.7668C465.439 12.0667 467.428 9.83494 470.903 5.91646C481.115 -5.65386 498.2 5.79304 506.244 13.7123C515.474 22.7731 523.854 35.0428 522.412 47.9913C521.883 52.09 520.437 56.0435 518.166 59.6027Z" fill="#FFBD8D" stroke="#263238" stroke-linecap="round" stroke-linejoin="round"/>
<path d="M503.987 15.6767C508.557 20.5619 509.976 26.3316 507.149 28.5634C504.322 30.7952 498.345 28.6457 493.741 23.7604C489.138 18.8752 487.752 13.1055 490.568 10.8737C493.384 8.6419 499.44 10.7914 503.987 15.6767Z" fill="white"/>
<path opacity="0.49" d="M507.781 47.3282C516.12 40.7213 516.34 28.3717 508.273 19.7445C500.205 11.1173 486.905 9.47949 478.566 16.0864C470.227 22.6932 470.007 35.0429 478.075 43.6701C486.142 52.2973 499.442 53.9351 507.781 47.3282Z" fill="white"/>
<path d="M448.042 7.07861C450.992 10.236 451.629 14.1854 449.461 15.9029C447.294 17.6205 443.137 16.4583 440.187 13.3009C437.237 10.1435 436.612 6.19412 438.779 4.47657C440.947 2.75903 445.037 3.9212 448.042 7.07861Z" fill="white"/>
<path d="M436.254 83.2267C421.36 73.8985 405.114 65.4033 403.282 46.9319C402.287 36.8117 407.84 25.8791 414.835 17.8364" fill="#FFE5D2"/>
<path d="M436.254 83.2267C421.36 73.8985 405.114 65.4033 403.282 46.9319C402.287 36.8117 407.84 25.8791 414.835 17.8364" stroke="#263238" stroke-linecap="round" stroke-linejoin="round"/>
<path d="M445.104 89.1198C443.696 88.0914 442.232 87.0629 440.746 86.0344L445.104 89.1198Z" fill="#FF667A"/>
<path d="M445.104 89.1198C443.696 88.0914 442.232 87.0629 440.746 86.0344" stroke="#263238" stroke-linecap="round" stroke-linejoin="round"/>
<path d="M466.802 17.8982C466.802 17.8982 476.702 5.55652 484.233 5.55652L466.802 17.8982Z" fill="#FF667A"/>
<path d="M466.802 17.8982C466.802 17.8982 476.702 5.55652 484.233 5.55652" stroke="#263238" stroke-linecap="round" stroke-linejoin="round"/>
<path d="M419.282 13.5169C419.282 13.5169 427.204 7.34607 431.953 7.34607L419.282 13.5169Z" fill="#FF667A"/>
<path d="M419.282 13.5169C419.282 13.5169 427.204 7.34607 431.953 7.34607" stroke="#263238" stroke-linecap="round" stroke-linejoin="round"/>
<path d="M461.26 155.703H451.159V146.406H440.858V155.703H430.768V165.175H440.858V174.473H451.159V165.175H461.26V155.703Z" fill="white" stroke="#263238" stroke-linecap="round" stroke-linejoin="round"/>
</svg>
